<?xml version="1.0" standalone="no"?>
<!DOCTYPE svg PUBLIC "-//W3C//DTD SVG 20010904//EN"
 "http://www.w3.org/TR/2001/REC-SVG-20010904/DTD/svg10.dtd">
<svg version="1.0" xmlns="http://www.w3.org/2000/svg"
 width="600.000000pt" height="600.000000pt" viewBox="0 0 600.000000 600.000000"
 preserveAspectRatio="xMidYMid meet">
<metadata>
Created by potrace 1.11, written by Peter Selinger 2001-2013
</metadata>
<g transform="translate(0.000000,600.000000) scale(0.100000,-0.100000)"
fill="#000000" stroke="none">
<path d="M2917 4874 c-1 -1 -43 -4 -94 -8 -50 -3 -98 -8 -105 -11 -7 -2 -26
-6 -43 -9 -167 -28 -403 -106 -530 -176 -104 -58 -131 -74 -206 -126 -187
-127 -360 -299 -474 -469 -22 -33 -43 -62 -46 -65 -4 -3 -31 -51 -61 -107
-254 -468 -301 -1005 -133 -1508 24 -70 41 -114 88 -215 17 -38 146 -252 174
-289 100 -136 251 -286 388 -388 38 -29 75 -56 80 -61 26 -21 169 -100 260
-142 144 -68 329 -126 460 -145 22 -3 46 -8 53 -10 64 -22 480 -22 544 0 7 2
31 7 53 10 138 20 324 79 475 151 111 53 271 149 278 166 2 4 8 8 14 8 9 0 74
49 123 92 35 30 189 184 210 209 247 293 396 642 441 1034 15 129 4 391 -22
530 -14 75 -61 241 -87 309 -28 75 -114 252 -155 321 -112 190 -329 423 -507
546 -27 19 -51 37 -53 42 -2 4 -8 7 -13 7 -5 0 -33 15 -62 34 -66 43 -219 119
-272 137 -22 7 -44 16 -50 20 -37 25 -319 90 -452 104 -56 6 -271 13 -276 9z"/>
</g>
</svg>
